<svg height="350" viewbox="0 0 390 390" width="350" xmlns="http://www.w3.org/2000/svg" xmlns:xlink="http://www.w3.org/1999/xlink"><g fill="#e5e5e5" stroke="#e5e5e5" transform="translate(110, 375) scale(0.75, 0.75)"><path d="M25.96 6v1.344q-.608-.336-1.226-.5-.609-.172-1.234-.172-1.398 0-2.172.89-.773.883-.773 2.485 0 1.601.773 2.492.774.883 2.172.883.625 0 1.234-.164.618-.172 1.227-.508v1.328q-.602.281-1.25.422-.64.14-1.367.14-1.977 0-3.14-1.242-1.165-1.242-1.165-3.351 0-2.14 1.172-3.367 1.18-1.227 3.227-1.227.664 0 1.296.14.633.134 1.227.407z"></path></g></svg>