<svg height="350" viewbox="0 0 390 390" width="350" xmlns="http://www.w3.org/2000/svg" xmlns:xlink="http://www.w3.org/1999/xlink"><g fill="#e5e5e5" stroke="#e5e5e5" transform="translate(155, 1) scale(0.75, 0.75)"><path d="M24.973 6.992V2.258h1.437v12.156h-1.437v-1.312q-.453.78-1.149 1.164-.687.375-1.656.375-1.586 0-2.586-1.266-.992-1.266-.992-3.328 0-2.063.992-3.328 1-1.266 2.586-1.266.969 0 1.656.383.696.375 1.149 1.156zm-4.899 3.055q0 1.586.649 2.492.656.898 1.797.898 1.14 0 1.796-.898.657-.906.657-2.492 0-1.586-.657-2.485-.656-.906-1.796-.906-1.141 0-1.797.906-.649.899-.649 2.485z"></path></g></svg>