<svg height="350" viewbox="0 0 390 390" width="350" xmlns="http://www.w3.org/2000/svg" xmlns:xlink="http://www.w3.org/1999/xlink"><g fill="#e5e5e5" stroke="#e5e5e5" transform="translate(375, 20) scale(0.75, 0.75)"><path d="M10 22.785q-1.125 0-1.773.602-.641.601-.641 1.656t.64 1.656q.649.602 1.774.602t1.773-.602q.649-.61.649-1.656 0-1.055-.649-1.656-.64-.602-1.773-.602zm-1.578-.672q-1.016-.25-1.586-.945-.563-.695-.563-1.695 0-1.399.993-2.211 1-.813 2.734-.813 1.742 0 2.734.813.993.812.993 2.21 0 1-.57 1.696-.563.695-1.571.945 1.14.266 1.773 1.04.641.773.641 1.89 0 1.695-1.04 2.602-1.03.906-2.96.906t-2.969-.906Q6 26.738 6 25.043q0-1.117.64-1.89.641-.774 1.782-1.04zm-.578-2.492q0 .906.562 1.414.57.508 1.594.508 1.016 0 1.586-.508.578-.508.578-1.414 0-.906-.578-1.414-.57-.508-1.586-.508-1.023 0-1.594.508-.562.508-.562 1.414z"></path></g></svg>