<svg height="350" viewBox="0 0 390 390" width="350" xmlns="http://www.w3.org/2000/svg" xmlns:xlink="http://www.w3.org/1999/xlink"><g fill="#e5e5e5" stroke="#e5e5e5" transform="translate(0, 245) scale(0.75, 0.75)"><path d="M11.434 22.035q1.132.242 1.765 1.008.64.766.64 1.89 0 1.727-1.187 2.672-1.187.946-3.375.946-.734 0-1.515-.149-.774-.14-1.602-.43V26.45q.656.383 1.438.578.78.196 1.632.196 1.485 0 2.258-.586.782-.586.782-1.703 0-1.032-.727-1.61-.719-.586-2.008-.586h-1.36v-1.297h1.423q1.164 0 1.78-.46.618-.47.618-1.344 0-.899-.64-1.375-.633-.485-1.82-.485-.65 0-1.391.141-.743.14-1.633.437V16.95q.898-.25 1.68-.375.788-.125 1.484-.125 1.797 0 2.844.82 1.046.813 1.046 2.204 0 .968-.554 1.64-.555.664-1.578.922z"/></g></svg>