<svg height="350" viewbox="0 0 390 390" width="350" xmlns="http://www.w3.org/2000/svg" xmlns:xlink="http://www.w3.org/1999/xlink"><g fill="#e5e5e5" stroke="#e5e5e5" transform="translate(290, 1) scale(0.75, 0.75)"><path d="M24.973 9.937q0-1.562-.649-2.421-.64-.86-1.804-.86-1.157 0-1.805.86-.64.859-.64 2.421 0 1.555.64 2.415.648.859 1.805.859 1.164 0 1.804-.86.649-.859.649-2.414zm1.437 3.391q0 2.234-.992 3.32-.992 1.094-3.04 1.094-.757 0-1.429-.117-.672-.11-1.304-.344v-1.398q.632.344 1.25.508.617.164 1.257.164 1.414 0 2.118-.743.703-.734.703-2.226v-.711q-.446.773-1.141 1.156-.695.383-1.664.383-1.61 0-2.594-1.227-.984-1.226-.984-3.25 0-2.03.984-3.257.985-1.227 2.594-1.227.969 0 1.664.383t1.14 1.156V5.664h1.438z"></path></g></svg>