<svg height="350" viewbox="0 0 390 390" width="350" xmlns="http://www.w3.org/2000/svg" xmlns:xlink="http://www.w3.org/1999/xlink"><g fill="#e5e5e5" stroke="#e5e5e5" transform="translate(200, 1) scale(0.75, 0.75)"><path d="M26.555 9.68v.703h-6.61q.094 1.484.89 2.265.806.774 2.235.774.828 0 1.602-.203.781-.203 1.547-.61v1.36q-.774.328-1.586.5-.813.172-1.649.172-2.093 0-3.32-1.22-1.219-1.218-1.219-3.296 0-2.148 1.157-3.406 1.164-1.266 3.132-1.266 1.766 0 2.79 1.14 1.03 1.134 1.03 3.087zm-1.438-.422q-.015-1.18-.664-1.883-.64-.703-1.703-.703-1.203 0-1.93.68-.718.68-.828 1.914z"></path></g></svg>