<svg height="350" viewbox="0 0 390 390" width="350" xmlns="http://www.w3.org/2000/svg" xmlns:xlink="http://www.w3.org/1999/xlink"><g fill="#e5e5e5" stroke="#e5e5e5" transform="translate(0, 155) scale(0.75, 0.75)"><path d="M6.719 16.66h6.195v1.328h-4.75v2.86q.344-.118.688-.172.343-.063.687-.063 1.953 0 3.094 1.07 1.14 1.07 1.14 2.899 0 1.883-1.171 2.93-1.172 1.039-3.305 1.039-.735 0-1.5-.125-.758-.125-1.57-.375v-1.586q.703.383 1.453.57.75.188 1.586.188 1.351 0 2.14-.711.79-.711.79-1.93 0-1.219-.79-1.93-.789-.71-2.14-.71-.633 0-1.266.14-.625.14-1.281.438z"></path></g></svg>