<svg height="350" viewbox="0 0 390 390" width="350" xmlns="http://www.w3.org/2000/svg" xmlns:xlink="http://www.w3.org/1999/xlink"><g fill="#e5e5e5" stroke="#e5e5e5" transform="translate(20, 375) scale(0.75, 0.75)"><path d="M23.328 10.016q-1.742 0-2.414.398-.672.398-.672 1.36 0 .765.5 1.218.508.445 1.375.445 1.196 0 1.914-.843.727-.852.727-2.258v-.32zm2.867-.594v4.992h-1.437v-1.328q-.492.797-1.227 1.18-.734.375-1.797.375-1.343 0-2.14-.75-.79-.758-.79-2.024 0-1.476.985-2.226.992-.75 2.953-.75h2.016V8.75q0-.992-.656-1.531-.649-.547-1.829-.547-.75 0-1.46.18-.711.18-1.368.539V6.062q.79-.304 1.532-.453.742-.156 1.445-.156 1.898 0 2.836.984.937.985.937 2.985z"></path></g></svg>