<svg height="350" viewbox="0 0 390 390" width="350" xmlns="http://www.w3.org/2000/svg" xmlns:xlink="http://www.w3.org/1999/xlink"><g fill="#e5e5e5" stroke="#e5e5e5" transform="translate(375, 110) scale(0.75, 0.75)"><path d="M10.137 21.863q-1.063 0-1.688.727-.617.726-.617 1.992 0 1.258.617 1.992.625.727 1.688.727 1.062 0 1.68-.727.624-.734.624-1.992 0-1.266-.625-1.992-.617-.727-1.68-.727zm3.133-4.945v1.437q-.594-.28-1.204-.43-.601-.148-1.195-.148-1.562 0-2.39 1.055-.82 1.055-.938 3.188.46-.68 1.156-1.04.696-.367 1.531-.367 1.758 0 2.774 1.07 1.023 1.063 1.023 2.899 0 1.797-1.062 2.883-1.063 1.086-2.828 1.086-2.024 0-3.094-1.547-1.07-1.555-1.07-4.5 0-2.766 1.312-4.406 1.313-1.649 3.524-1.649.593 0 1.195.117.61.118 1.266.352z"></path></g></svg>