<svg height="350" viewBox="0 0 390 390" width="350" xmlns="http://www.w3.org/2000/svg" xmlns:xlink="http://www.w3.org/1999/xlink"><g fill="#e5e5e5" stroke="#e5e5e5" transform="translate(65, 375) scale(0.75, 0.75)"><path d="M24.922 10.047q0-1.586-.656-2.485-.649-.906-1.79-.906-1.14 0-1.796.906-.649.899-.649 2.485 0 1.586.649 2.492.656.898 1.797.898 1.14 0 1.789-.898.656-.906.656-2.492zm-4.89-3.055q.452-.781 1.14-1.156.695-.383 1.656-.383 1.594 0 2.586 1.266 1 1.265 1 3.328 0 2.062-1 3.328-.992 1.266-2.586 1.266-.96 0-1.656-.375-.688-.383-1.14-1.164v1.312h-1.446V2.258h1.445z"/></g></svg>