<svg height="350" viewBox="0 0 390 390" width="350" xmlns="http://www.w3.org/2000/svg" xmlns:xlink="http://www.w3.org/1999/xlink"><g fill="#e5e5e5" stroke="#e5e5e5" transform="translate(375, 290) scale(0.75, 0.75)"><path d="M8.195 26.996h5.508v1.328H6.297v-1.328q.898-.93 2.445-2.492 1.555-1.57 1.953-2.024.758-.851 1.055-1.437.305-.594.305-1.164 0-.93-.657-1.516-.648-.586-1.695-.586-.742 0-1.57.258-.82.258-1.758.781v-1.593q.953-.383 1.781-.578.828-.196 1.516-.196 1.812 0 2.89.906 1.079.907 1.079 2.422 0 .72-.274 1.368-.265.64-.976 1.515-.196.227-1.243 1.313-1.046 1.078-2.953 3.023z"/></g></svg>